<?xml version="1.0" encoding="utf-8"?>
<!-- Generator: Adobe Illustrator 19.2.0, SVG Export Plug-In . SVG Version: 6.00 Build 0)  -->
<svg version="1.1" id="Layer_1" xmlns="http://www.w3.org/2000/svg" xmlns:xlink="http://www.w3.org/1999/xlink" x="0px" y="0px"
	 viewBox="0 0 454.4 620.2" style="enable-background:new 0 0 454.4 620.2;" xml:space="preserve">
<style type="text/css">
	.st0{fill:#FFFFFF;stroke:#5DD1F9;stroke-width:15;stroke-miterlimit:10;}
	.st1{fill:#5DD1F9;}
	.st2{enable-background:new    ;}
	.st3{fill:#60C7E2;}
	.st4{fill:#4FA6BA;}
	.st5{fill:#E2E2E2;}
	.st6{fill:none;}
	.st7{font-family:'Verdana';}
	.st8{font-size:12px;}
</style>
<title>SUPER BUGS</title>
<g id="图层_3">
	<path class="st0" d="M104.9,7.7h244.6c53.3,0,96.6,43.2,96.6,96.6v411.8c0,53.3-43.2,96.6-96.6,96.6H104.9
		c-53.3,0-96.6-43.2-96.6-96.6V104.3C8.4,51,51.6,7.7,104.9,7.7z"/>
</g>
<g id="图层_7">
	<path class="st1" d="M57.8,78.6h338.8c27.3,0,49.5,22.1,49.5,49.5v189.7c0,27.3-22.1,49.5-49.5,49.5H57.8
		c-27.3,0-49.5-22.1-49.5-49.5V128.1C8.4,100.8,30.5,78.6,57.8,78.6z"/>
	<g class="st2">
		<path class="st3" d="M83.4,529.1c0-0.6,0.1-1,0.3-1.2c0.2-0.2,0.7-0.3,1.4-0.3h4.9c2.3,0,4.1,0.5,5.2,1.6c1.1,1,1.7,2.7,1.7,4.9
			c0,4.4-2.3,6.6-6.9,6.6h-4.2v7.1c0,0.4-0.1,0.7-0.3,0.9s-0.5,0.3-0.9,0.3c-0.5,0-0.8-0.1-1-0.4s-0.3-0.5-0.3-0.9V529.1z
			 M85.8,538.6h4.2c1.6,0,2.7-0.4,3.4-1.1c0.7-0.7,1-1.9,1-3.4s-0.4-2.7-1.1-3.3c-0.8-0.7-1.9-1-3.3-1h-4.2V538.6z"/>
		<path class="st3" d="M112.7,546.6c0.4,0,0.6,0.1,0.9,0.3c0.2,0.2,0.3,0.5,0.3,0.9c0,0.4-0.1,0.6-0.3,0.8c-0.2,0.2-0.5,0.3-0.8,0.3
			H105c-0.5,0-0.9-0.1-1.2-0.4c-0.3-0.3-0.4-0.6-0.4-1.1v-18.9c0-0.4,0.1-0.7,0.3-0.9c0.2-0.2,0.5-0.3,0.9-0.3
			c0.8,0,1.2,0.4,1.2,1.1v18.2H112.7z"/>
		<path class="st3" d="M123.8,543.2l-1.3,3.6c-0.1,0.3-0.2,0.6-0.3,0.8c-0.1,0.3-0.2,0.5-0.4,0.7c-0.1,0.2-0.3,0.4-0.5,0.5
			c-0.2,0.1-0.4,0.2-0.6,0.2c-0.4,0-0.7-0.1-1-0.4c-0.2-0.3-0.2-0.7,0-1.4l6.5-18.9c0.1-0.3,0.3-0.6,0.5-0.8c0.3-0.2,0.6-0.3,1-0.3
			c0.4,0,0.8,0.1,1.1,0.3c0.3,0.2,0.5,0.5,0.6,0.8l6.5,19c0.2,0.5,0.2,0.9,0,1.3c-0.1,0.3-0.5,0.5-1,0.5c-0.4,0-0.6-0.1-0.9-0.3
			c-0.2-0.2-0.4-0.5-0.5-0.9l-1.7-4.7H123.8z M131.5,541.1l-3.5-10.6l-3.5,10.6H131.5z"/>
		<path class="st3" d="M152.2,549.4c-1.6,0-3-0.3-4.2-0.8c-1.3-0.5-2.4-1.3-3.3-2.2c-0.9-1-1.6-2.2-2.1-3.5s-0.7-3-0.7-4.7
			c0-1.5,0.2-3,0.7-4.3c0.5-1.4,1.2-2.6,2-3.6c0.8-1,1.9-1.8,3.1-2.4c1.2-0.6,2.5-0.9,3.9-0.9c0.7,0,1.5,0.1,2.1,0.2
			c0.7,0.2,1.3,0.4,1.9,0.7s1.1,0.6,1.5,0.9c0.4,0.3,0.8,0.7,1.1,1c0.2,0.4,0.3,0.7,0.2,1c0,0.2-0.1,0.3-0.3,0.4
			c-0.1,0.1-0.3,0.2-0.5,0.2c-0.2,0.1-0.6,0-0.9-0.3c-0.4-0.2-0.8-0.5-1.3-0.8c-0.5-0.3-1.1-0.6-1.7-0.9c-0.6-0.3-1.4-0.4-2.2-0.4
			c-1.1,0-2.1,0.3-3,0.8c-0.9,0.5-1.6,1.2-2.3,2.1c-0.6,0.8-1.1,1.8-1.4,2.9c-0.3,1.1-0.5,2.2-0.5,3.2c0,1.3,0.2,2.5,0.5,3.7
			c0.4,1.1,0.9,2.1,1.6,2.9c0.7,0.8,1.5,1.4,2.5,1.9c1,0.4,2.1,0.7,3.3,0.7c1,0,1.8-0.2,2.5-0.5c0.7-0.3,1.3-0.8,1.9-1.3
			c0.5-0.4,0.8-0.5,1.2-0.4c0.3,0.1,0.5,0.2,0.7,0.5s0.2,0.4,0.2,0.7c0,0.2-0.2,0.5-0.5,0.9s-0.8,0.7-1.4,1.1s-1.3,0.7-2.1,0.9
			C153.9,549.3,153,549.4,152.2,549.4z"/>
		<path class="st3" d="M167.7,546.7h8c0.3,0,0.6,0,0.9,0c0.3,0,0.6,0,0.8,0.1c0.2,0.1,0.4,0.2,0.5,0.3c0.1,0.1,0.2,0.4,0.2,0.6
			c0,0.4-0.1,0.7-0.3,0.9s-0.6,0.2-1.1,0.2h-10c-0.5,0-0.8-0.1-1.1-0.3c-0.2-0.2-0.4-0.5-0.4-1.1v-18.5c0-0.5,0.1-0.8,0.3-1
			c0.2-0.2,0.6-0.3,1.1-0.3h9.8c0.4,0,0.8,0.1,1,0.2c0.2,0.2,0.3,0.4,0.4,0.9c0,0.4-0.1,0.7-0.3,0.8c-0.2,0.2-0.6,0.2-1,0.2h-8.8v7
			h8.5c0.5,0,0.8,0.1,1,0.2c0.2,0.2,0.3,0.5,0.3,0.9c0,0.4-0.1,0.7-0.3,0.8c-0.2,0.1-0.5,0.2-1,0.2h-8.5V546.7z"/>
		<path class="st3" d="M204,529.8v18c0,0.4-0.1,0.7-0.2,0.9c-0.2,0.2-0.5,0.3-1,0.3c-0.5,0-0.8-0.1-1-0.3c-0.2-0.2-0.2-0.5-0.2-0.9
			v-18h-5c-0.4,0-0.7-0.1-0.9-0.2c-0.2-0.2-0.3-0.5-0.3-0.9c0-0.4,0.1-0.7,0.3-0.9s0.5-0.3,0.9-0.3H209c0.4,0,0.6,0.1,0.9,0.3
			c0.2,0.2,0.3,0.5,0.3,0.9c0,0.4-0.1,0.7-0.4,0.9c-0.3,0.2-0.5,0.2-0.8,0.2H204z"/>
		<path class="st3" d="M235.1,547.1c-0.1,0.7-0.3,1.2-0.7,1.5c-0.4,0.3-0.8,0.5-1.3,0.5c-0.5,0-0.9-0.1-1.2-0.4
			c-0.3-0.3-0.6-0.7-0.8-1.3l-4.5-15.7l-4.5,15.9c-0.3,1.1-0.9,1.6-1.9,1.6c-0.5,0-1-0.2-1.3-0.5c-0.4-0.3-0.6-0.9-0.7-1.7
			l-2.8-18.1c-0.1-0.4,0-0.7,0.1-1.1s0.5-0.5,1-0.5c0.3,0,0.5,0.1,0.7,0.2c0.2,0.1,0.4,0.5,0.4,1.1l2.2,14.5c0,0.3,0.1,0.7,0.2,1
			c0.1,0.4,0.1,0.7,0.2,0.9c0.1,0.2,0.2,0.3,0.3,0.3c0.1,0,0.2-0.2,0.3-0.6l4.4-16.2c0.2-0.8,0.7-1.3,1.3-1.3c0.3,0,0.6,0.1,0.8,0.3
			s0.4,0.5,0.5,1c0.8,2.7,1.5,5.4,2.3,8.1c0.8,2.7,1.6,5.4,2.4,8.1c0.3,1,0.6,1,0.7,0l2.4-16.1c0.1-0.5,0.2-0.8,0.4-1
			c0.2-0.2,0.4-0.3,0.8-0.3c0.5,0,0.8,0.1,1,0.4c0.1,0.3,0.2,0.6,0.1,1.1L235.1,547.1z"/>
		<path class="st3" d="M252.7,526.9c1.6,0,2.9,0.3,4.1,0.9c1.2,0.6,2.1,1.4,2.9,2.4c0.8,1,1.4,2.2,1.8,3.6c0.4,1.4,0.6,2.8,0.6,4.3
			c0,1.5-0.2,3-0.6,4.3s-1,2.5-1.7,3.6c-0.8,1-1.7,1.8-2.9,2.4c-1.2,0.6-2.5,0.9-4.1,0.9c-1.5,0-2.9-0.3-4.1-0.9
			c-1.2-0.6-2.2-1.4-2.9-2.4c-0.8-1-1.4-2.2-1.8-3.6s-0.6-2.8-0.6-4.3c0-1.5,0.2-2.9,0.6-4.3c0.4-1.4,0.9-2.6,1.7-3.6
			c0.8-1,1.8-1.8,2.9-2.4S251.1,526.9,252.7,526.9z M252.7,547.2c1.2,0,2.2-0.2,3-0.7c0.9-0.4,1.6-1,2.2-1.8c0.6-0.8,1-1.7,1.3-2.8
			c0.3-1.1,0.4-2.3,0.4-3.6c0-1.2-0.1-2.3-0.4-3.4c-0.3-1.1-0.7-2.1-1.3-2.9c-0.6-0.8-1.3-1.5-2.2-2c-0.9-0.5-1.9-0.8-3.1-0.8
			c-1.2,0-2.2,0.3-3.1,0.8c-0.9,0.5-1.6,1.2-2.2,2s-1,1.8-1.3,2.9c-0.3,1.1-0.4,2.2-0.4,3.4c0,1.2,0.1,2.3,0.4,3.3
			c0.3,1.1,0.7,2,1.2,2.9c0.6,0.8,1.3,1.5,2.2,2C250.4,546.9,251.5,547.2,252.7,547.2z"/>
		<path class="st3" d="M287.6,529.8v18c0,0.4-0.1,0.7-0.2,0.9c-0.2,0.2-0.5,0.3-1,0.3c-0.5,0-0.8-0.1-1-0.3
			c-0.2-0.2-0.2-0.5-0.2-0.9v-18h-5c-0.4,0-0.7-0.1-0.9-0.2s-0.3-0.5-0.3-0.9c0-0.4,0.1-0.7,0.3-0.9s0.5-0.3,0.9-0.3h12.4
			c0.4,0,0.6,0.1,0.9,0.3s0.3,0.5,0.3,0.9c0,0.4-0.1,0.7-0.4,0.9c-0.3,0.2-0.5,0.2-0.8,0.2H287.6z"/>
		<path class="st3" d="M308.4,526.9c1.6,0,2.9,0.3,4.1,0.9s2.1,1.4,2.9,2.4c0.8,1,1.4,2.2,1.8,3.6c0.4,1.4,0.6,2.8,0.6,4.3
			c0,1.5-0.2,3-0.6,4.3c-0.4,1.4-1,2.5-1.7,3.6s-1.7,1.8-2.9,2.4c-1.2,0.6-2.5,0.9-4.1,0.9c-1.5,0-2.9-0.3-4.1-0.9
			c-1.2-0.6-2.2-1.4-2.9-2.4c-0.8-1-1.4-2.2-1.8-3.6c-0.4-1.4-0.6-2.8-0.6-4.3c0-1.5,0.2-2.9,0.6-4.3c0.4-1.4,0.9-2.6,1.7-3.6
			c0.8-1,1.8-1.8,2.9-2.4C305.4,527.2,306.8,526.9,308.4,526.9z M308.4,547.2c1.2,0,2.2-0.2,3-0.7c0.9-0.4,1.6-1,2.2-1.8
			s1-1.7,1.3-2.8c0.3-1.1,0.4-2.3,0.4-3.6c0-1.2-0.1-2.3-0.4-3.4c-0.3-1.1-0.7-2.1-1.3-2.9c-0.6-0.8-1.3-1.5-2.2-2
			c-0.9-0.5-1.9-0.8-3.1-0.8s-2.2,0.3-3.1,0.8c-0.9,0.5-1.6,1.2-2.2,2s-1,1.8-1.3,2.9s-0.4,2.2-0.4,3.4c0,1.2,0.1,2.3,0.4,3.3
			c0.3,1.1,0.7,2,1.2,2.9c0.6,0.8,1.3,1.5,2.2,2C306.1,546.9,307.1,547.2,308.4,547.2z"/>
		<path class="st3" d="M326.8,548c0,0.4-0.1,0.6-0.2,0.8c-0.2,0.2-0.5,0.3-1,0.3c-0.5,0-0.8-0.1-1-0.3c-0.2-0.2-0.3-0.5-0.3-0.8
			v-19.5c0-0.4,0.1-0.7,0.3-0.9c0.2-0.2,0.5-0.3,1-0.3c0.4,0,0.7,0.1,0.9,0.3c0.2,0.2,0.3,0.5,0.3,0.9v7.6l8.3-7.5
			c0.2-0.2,0.5-0.4,0.7-0.6c0.2-0.2,0.5-0.4,0.7-0.5s0.5-0.2,0.7-0.2c0.2,0,0.4,0.1,0.7,0.3c0.5,0.5,0.4,1.1-0.3,1.8l-9.2,8.1
			l9.6,9.2c0.4,0.4,0.6,0.8,0.7,1.1c0.1,0.4,0,0.7-0.2,0.9c-0.5,0.6-1.1,0.5-1.9-0.1l-9.7-9.7V548z"/>
		<path class="st3" d="M347.4,546.7h8c0.3,0,0.6,0,0.9,0c0.3,0,0.6,0,0.8,0.1c0.2,0.1,0.4,0.2,0.5,0.3s0.2,0.4,0.2,0.6
			c0,0.4-0.1,0.7-0.3,0.9s-0.6,0.2-1.1,0.2h-10c-0.5,0-0.8-0.1-1.1-0.3c-0.2-0.2-0.4-0.5-0.4-1.1v-18.5c0-0.5,0.1-0.8,0.3-1
			c0.2-0.2,0.6-0.3,1.1-0.3h9.8c0.4,0,0.8,0.1,1,0.2s0.3,0.4,0.4,0.9c0,0.4-0.1,0.7-0.3,0.8c-0.2,0.2-0.6,0.2-1,0.2h-8.8v7h8.5
			c0.5,0,0.8,0.1,1,0.2c0.2,0.2,0.3,0.5,0.3,0.9c0,0.4-0.1,0.7-0.3,0.8c-0.2,0.1-0.5,0.2-1,0.2h-8.5V546.7z"/>
		<path class="st3" d="M367.3,547.9c0,0.4-0.1,0.6-0.3,0.9c-0.2,0.2-0.5,0.4-0.9,0.4c-0.4,0-0.7-0.1-0.9-0.4s-0.3-0.5-0.3-0.9v-19.4
			c0-0.4,0.1-0.6,0.2-0.9c0.2-0.2,0.4-0.3,0.9-0.3c0.3,0,0.6,0.1,0.8,0.3c0.2,0.2,0.4,0.4,0.6,0.6l11.1,16.3v-16
			c0-0.4,0.1-0.6,0.3-0.9c0.2-0.2,0.5-0.3,0.9-0.3c0.5,0,0.8,0.1,1,0.3c0.2,0.2,0.3,0.5,0.3,0.9v19.4c0,0.4-0.1,0.6-0.2,0.9
			c-0.2,0.2-0.4,0.3-0.9,0.3c-0.3,0-0.5-0.1-0.8-0.3c-0.2-0.2-0.4-0.4-0.6-0.7l-11.1-16V547.9z"/>
		<path class="st3" d="M390.7,532.5c0,0.6,0.1,1.1,0.4,1.5s0.6,0.8,1.1,1.1c0.4,0.3,0.9,0.6,1.5,0.9c0.6,0.3,1.2,0.5,1.8,0.8
			c0.8,0.4,1.5,0.7,2.1,1.1s1.1,0.8,1.6,1.3c0.4,0.5,0.8,1,1,1.6s0.3,1.3,0.3,2.2c0,0.9-0.2,1.8-0.5,2.5c-0.3,0.8-0.8,1.4-1.4,2
			c-0.6,0.6-1.3,1-2.2,1.3c-0.8,0.3-1.8,0.5-2.7,0.5c-0.8,0-1.6-0.1-2.3-0.3s-1.4-0.4-2-0.7c-0.9-0.5-1.5-0.9-1.7-1.4
			s-0.3-0.9,0-1.3c0.2-0.3,0.5-0.4,0.8-0.4c0.3,0,0.6,0.1,1,0.4c0.6,0.4,1.3,0.8,2,1.1c0.7,0.3,1.5,0.5,2.4,0.5
			c0.5,0,1.1-0.1,1.6-0.3c0.5-0.2,1-0.5,1.3-0.8s0.7-0.8,0.9-1.3c0.2-0.5,0.4-1,0.4-1.6c0-0.6-0.1-1.1-0.3-1.6s-0.5-0.9-0.9-1.2
			c-0.4-0.4-0.8-0.7-1.3-0.9s-0.9-0.5-1.4-0.7c-0.8-0.3-1.6-0.7-2.4-1c-0.7-0.4-1.3-0.8-1.9-1.2c-0.5-0.5-0.9-1-1.2-1.6
			c-0.3-0.6-0.4-1.4-0.4-2.3c0-0.8,0.2-1.6,0.5-2.2c0.3-0.7,0.8-1.2,1.3-1.7c0.5-0.5,1.2-0.8,1.9-1.1c0.7-0.2,1.5-0.4,2.2-0.4
			c0.8,0,1.5,0.1,2.3,0.3s1.4,0.5,1.9,0.8s0.9,0.7,1.1,1.1c0.2,0.4,0.2,0.8,0,1.2c-0.2,0.3-0.5,0.5-0.8,0.5c-0.4,0-0.7-0.1-1-0.4
			c-0.4-0.3-0.9-0.6-1.5-0.9s-1.3-0.4-1.9-0.4c-1.1,0-1.9,0.3-2.5,0.9C391,530.8,390.7,531.5,390.7,532.5z"/>
	</g>
	<rect x="271.7" y="404" class="st1" width="13" height="46.1"/>
	<rect x="245.9" y="439.2" class="st1" width="13" height="46.1"/>
	<rect x="245.8" y="475.4" class="st1" width="43.1" height="11.2"/>
	<rect x="245.8" y="439" class="st1" width="38.9" height="11.2"/>
	<rect x="245.8" y="404" class="st1" width="38.9" height="11.2"/>
	<polygon class="st4" points="284.7,415.2 284.7,432.5 271.7,415.2 	"/>
	<polygon class="st4" points="258.9,449.3 258.9,466.6 245.9,449.3 	"/>
	<rect x="190.4" y="414.6" class="st1" width="9.5" height="59.2"/>
	<rect x="165.5" y="439.4" class="st1" width="59.2" height="9.5"/>
	<polygon class="st4" points="199.8,448.9 199.8,461.2 190.4,448.9 	"/>
	<polygon class="st5" points="245.8,486.5 288.9,486.5 288.9,497.4 	"/>
</g>
<rect x="41.5" y="118.9" class="st6" width="357" height="208"/>
<text id="Description" transform="matrix(1 0 0 1 41.5273 128.0701)" class="st7 st8">Card Description</text>
</svg>
