<?xml version="1.0" encoding="utf-8"?>
<!-- Generator: Adobe Illustrator 19.2.0, SVG Export Plug-In . SVG Version: 6.00 Build 0)  -->
<svg version="1.1" id="Layer_1" xmlns="http://www.w3.org/2000/svg" xmlns:xlink="http://www.w3.org/1999/xlink" x="0px" y="0px"
	 viewBox="0 0 454.4 620.2" style="enable-background:new 0 0 454.4 620.2;" xml:space="preserve">
<style type="text/css">
	.st0{fill:#FFFFFF;stroke:#5DD1F9;stroke-width:15;stroke-miterlimit:10;}
	.st1{fill:#5DD1F9;}
	.st2{enable-background:new    ;}
	.st3{fill:#60C7E2;}
	.st4{fill:#4FA6BA;}
	.st5{fill:#E2E2E2;}
	.st6{fill:none;}
	.st7{font-family:'Verdana';}
	.st8{font-size:12px;}
</style>
<title>SUPER BUGS</title>
<g id="图层_3">
	<path class="st0" d="M104.9,7.6h244.6c53.3,0,96.6,43.2,96.6,96.6V516c0,53.3-43.2,96.6-96.6,96.6H104.9
		c-53.3,0-96.6-43.2-96.6-96.6V104.2C8.4,50.9,51.6,7.6,104.9,7.6z"/>
</g>
<g id="图层_7">
	<path class="st1" d="M57.8,78.5h338.8c27.3,0,49.5,22.1,49.5,49.4v189.7c0,27.3-22.1,49.5-49.5,49.5H57.8
		c-27.3,0-49.5-22.1-49.5-49.5V128C8.4,100.7,30.5,78.5,57.8,78.5z"/>
	<g class="st2">
		<path class="st3" d="M82.3,507c0-0.5,0.1-0.8,0.3-1c0.2-0.2,0.6-0.2,1.2-0.2h4.1c2,0,3.4,0.4,4.3,1.3c0.9,0.9,1.4,2.3,1.4,4.1
			c0,3.7-1.9,5.6-5.7,5.6h-3.5v6c0,0.3-0.1,0.6-0.2,0.8c-0.2,0.2-0.4,0.3-0.8,0.3c-0.4,0-0.7-0.1-0.8-0.3c-0.2-0.2-0.2-0.4-0.2-0.7
			V507z M84.4,515h3.5c1.3,0,2.3-0.3,2.9-0.9c0.6-0.6,0.9-1.6,0.9-2.9c0-1.3-0.3-2.2-1-2.8s-1.6-0.9-2.8-0.9h-3.5V515z"/>
		<path class="st3" d="M106.9,521.7c0.3,0,0.5,0.1,0.7,0.2c0.2,0.1,0.3,0.4,0.3,0.7c0,0.3-0.1,0.5-0.3,0.7c-0.2,0.1-0.4,0.2-0.7,0.2
			h-6.5c-0.4,0-0.8-0.1-1-0.3c-0.2-0.2-0.4-0.5-0.4-0.9v-15.9c0-0.3,0.1-0.5,0.3-0.7s0.4-0.2,0.7-0.2c0.7,0,1,0.3,1,1v15.3H106.9z"
			/>
		<path class="st3" d="M116.2,518.8l-1.1,3c-0.1,0.2-0.2,0.5-0.3,0.7c-0.1,0.2-0.2,0.4-0.3,0.6c-0.1,0.2-0.2,0.3-0.4,0.5
			c-0.1,0.1-0.3,0.2-0.5,0.2c-0.3,0-0.6-0.1-0.8-0.3c-0.2-0.2-0.2-0.6,0-1.2l5.5-15.9c0.1-0.3,0.2-0.5,0.5-0.7
			c0.2-0.2,0.5-0.2,0.8-0.2c0.4,0,0.7,0.1,0.9,0.2c0.2,0.2,0.4,0.4,0.5,0.7l5.5,15.9c0.1,0.4,0.1,0.8,0,1.1
			c-0.1,0.3-0.4,0.4-0.9,0.4c-0.3,0-0.5-0.1-0.7-0.2c-0.2-0.2-0.3-0.4-0.4-0.7l-1.4-4H116.2z M122.7,517l-3-8.9l-3,8.9H122.7z"/>
		<path class="st3" d="M140,524c-1.3,0-2.5-0.2-3.6-0.7c-1.1-0.4-2-1.1-2.8-1.9c-0.8-0.8-1.4-1.8-1.8-3s-0.6-2.5-0.6-4
			c0-1.3,0.2-2.5,0.6-3.6c0.4-1.1,1-2.1,1.7-3c0.7-0.8,1.6-1.5,2.6-2c1-0.5,2.1-0.7,3.3-0.7c0.6,0,1.2,0.1,1.8,0.2
			c0.6,0.1,1.1,0.3,1.6,0.5c0.5,0.2,0.9,0.5,1.2,0.8c0.4,0.3,0.7,0.6,0.9,0.9c0.2,0.3,0.2,0.6,0.2,0.9c0,0.1-0.1,0.3-0.2,0.4
			c-0.1,0.1-0.3,0.2-0.5,0.2c-0.2,0.1-0.5,0-0.8-0.2c-0.3-0.2-0.7-0.4-1.1-0.7s-0.9-0.5-1.4-0.7c-0.5-0.2-1.1-0.3-1.8-0.3
			c-0.9,0-1.8,0.2-2.5,0.7c-0.7,0.5-1.4,1-1.9,1.7c-0.5,0.7-0.9,1.5-1.2,2.4c-0.3,0.9-0.4,1.8-0.4,2.7c0,1.1,0.2,2.1,0.5,3.1
			c0.3,0.9,0.7,1.7,1.3,2.4c0.6,0.7,1.3,1.2,2.1,1.6c0.8,0.4,1.8,0.6,2.8,0.6c0.8,0,1.5-0.2,2.1-0.4c0.6-0.3,1.1-0.6,1.6-1.1
			c0.4-0.3,0.7-0.4,1-0.4c0.3,0.1,0.5,0.2,0.6,0.4c0.1,0.2,0.2,0.4,0.2,0.6c0,0.2-0.2,0.4-0.5,0.8c-0.3,0.3-0.7,0.6-1.2,0.9
			c-0.5,0.3-1.1,0.6-1.7,0.8S140.7,524,140,524z"/>
		<path class="st3" d="M153,521.7h6.7c0.3,0,0.5,0,0.8,0c0.3,0,0.5,0,0.7,0.1c0.2,0.1,0.3,0.1,0.5,0.3c0.1,0.1,0.2,0.3,0.2,0.5
			c0,0.4-0.1,0.6-0.3,0.7c-0.2,0.1-0.5,0.2-0.9,0.2h-8.4c-0.4,0-0.7-0.1-0.9-0.2c-0.2-0.1-0.3-0.4-0.3-0.9v-15.5
			c0-0.4,0.1-0.7,0.3-0.9s0.5-0.2,0.9-0.2h8.2c0.4,0,0.6,0.1,0.8,0.2s0.3,0.4,0.3,0.7c0,0.3-0.1,0.6-0.3,0.7
			c-0.2,0.1-0.5,0.2-0.8,0.2H153v5.9h7.1c0.4,0,0.7,0.1,0.9,0.2c0.2,0.1,0.3,0.4,0.3,0.7c0,0.3-0.1,0.6-0.3,0.7s-0.5,0.2-0.9,0.2
			H153V521.7z"/>
		<path class="st3" d="M184,505.2c1.3,0,2.5,0.3,3.4,0.8c1,0.5,1.8,1.2,2.4,2c0.6,0.9,1.1,1.9,1.5,3c0.3,1.1,0.5,2.3,0.5,3.6
			c0,1.3-0.2,2.5-0.5,3.6c-0.3,1.1-0.8,2.1-1.5,3c-0.6,0.9-1.5,1.6-2.4,2.1c-1,0.5-2.1,0.8-3.5,0.8c-1.3,0-2.4-0.3-3.4-0.8
			c-1-0.5-1.8-1.2-2.5-2c-0.6-0.9-1.1-1.9-1.5-3c-0.3-1.1-0.5-2.4-0.5-3.6c0-1.3,0.2-2.5,0.5-3.6c0.3-1.1,0.8-2.1,1.4-3
			c0.6-0.9,1.5-1.5,2.5-2C181.5,505.4,182.7,505.2,184,505.2z M184,522.2c1,0,1.8-0.2,2.5-0.5s1.3-0.9,1.8-1.5
			c0.5-0.7,0.8-1.4,1.1-2.4c0.2-0.9,0.4-1.9,0.4-3c0-1-0.1-2-0.3-2.9c-0.2-0.9-0.6-1.7-1.1-2.4c-0.5-0.7-1.1-1.3-1.8-1.7
			S185,507,184,507c-1,0-1.9,0.2-2.6,0.6s-1.3,1-1.8,1.7c-0.5,0.7-0.8,1.5-1.1,2.4c-0.2,0.9-0.3,1.9-0.3,2.8c0,1,0.1,1.9,0.3,2.8
			c0.2,0.9,0.6,1.7,1,2.4c0.5,0.7,1.1,1.3,1.8,1.7S183,522.2,184,522.2z"/>
		<path class="st3" d="M199.5,522.7c0,0.3-0.1,0.5-0.3,0.7c-0.2,0.2-0.4,0.3-0.8,0.3s-0.6-0.1-0.8-0.3c-0.2-0.2-0.2-0.4-0.2-0.7
			v-16.3c0-0.3,0.1-0.5,0.2-0.7s0.4-0.3,0.7-0.3c0.3,0,0.5,0.1,0.7,0.2c0.2,0.2,0.3,0.3,0.5,0.5l9.3,13.7v-13.4
			c0-0.3,0.1-0.5,0.2-0.7c0.1-0.2,0.4-0.3,0.8-0.3c0.4,0,0.6,0.1,0.8,0.3c0.2,0.2,0.2,0.4,0.2,0.8v16.3c0,0.3-0.1,0.5-0.2,0.7
			s-0.4,0.3-0.7,0.3c-0.2,0-0.5-0.1-0.6-0.2c-0.2-0.1-0.4-0.3-0.5-0.6l-9.3-13.4V522.7z"/>
		<path class="st3" d="M219.4,521.7h6.7c0.3,0,0.5,0,0.8,0c0.3,0,0.5,0,0.7,0.1c0.2,0.1,0.3,0.1,0.5,0.3c0.1,0.1,0.2,0.3,0.2,0.5
			c0,0.4-0.1,0.6-0.3,0.7c-0.2,0.1-0.5,0.2-0.9,0.2h-8.4c-0.4,0-0.7-0.1-0.9-0.2c-0.2-0.1-0.3-0.4-0.3-0.9v-15.5
			c0-0.4,0.1-0.7,0.3-0.9s0.5-0.2,0.9-0.2h8.2c0.4,0,0.6,0.1,0.8,0.2s0.3,0.4,0.3,0.7c0,0.3-0.1,0.6-0.3,0.7
			c-0.2,0.1-0.5,0.2-0.8,0.2h-7.4v5.9h7.1c0.4,0,0.7,0.1,0.9,0.2c0.2,0.1,0.3,0.4,0.3,0.7c0,0.3-0.1,0.6-0.3,0.7s-0.5,0.2-0.9,0.2
			h-7.1V521.7z"/>
		<path class="st3" d="M249.9,507.6v15.1c0,0.3-0.1,0.6-0.2,0.8c-0.1,0.2-0.4,0.3-0.8,0.3s-0.7-0.1-0.8-0.3
			c-0.1-0.2-0.2-0.4-0.2-0.8v-15.1h-4.2c-0.3,0-0.6-0.1-0.7-0.2c-0.2-0.1-0.3-0.4-0.3-0.7c0-0.3,0.1-0.6,0.3-0.7
			c0.2-0.1,0.4-0.2,0.7-0.2h10.4c0.3,0,0.5,0.1,0.7,0.2c0.2,0.2,0.3,0.4,0.3,0.7c0,0.3-0.1,0.6-0.3,0.7c-0.2,0.1-0.4,0.2-0.7,0.2
			H249.9z"/>
		<path class="st3" d="M267.3,505.2c1.3,0,2.5,0.3,3.4,0.8s1.8,1.2,2.4,2c0.7,0.9,1.1,1.9,1.5,3c0.3,1.1,0.5,2.3,0.5,3.6
			c0,1.3-0.2,2.5-0.5,3.6c-0.3,1.1-0.8,2.1-1.5,3c-0.7,0.9-1.5,1.6-2.4,2.1c-1,0.5-2.1,0.8-3.5,0.8c-1.3,0-2.4-0.3-3.4-0.8
			c-1-0.5-1.8-1.2-2.5-2c-0.6-0.9-1.1-1.9-1.5-3c-0.3-1.1-0.5-2.4-0.5-3.6c0-1.3,0.2-2.5,0.5-3.6c0.3-1.1,0.8-2.1,1.4-3
			c0.7-0.9,1.5-1.5,2.5-2S266,505.2,267.3,505.2z M267.3,522.2c1,0,1.8-0.2,2.5-0.5c0.7-0.4,1.3-0.9,1.8-1.5
			c0.5-0.7,0.8-1.4,1.1-2.4c0.2-0.9,0.4-1.9,0.4-3c0-1-0.1-2-0.3-2.9s-0.6-1.7-1.1-2.4c-0.5-0.7-1.1-1.3-1.8-1.7
			c-0.7-0.4-1.6-0.6-2.6-0.6c-1,0-1.9,0.2-2.6,0.6c-0.7,0.4-1.3,1-1.8,1.7s-0.8,1.5-1.1,2.4c-0.2,0.9-0.3,1.9-0.3,2.8
			c0,1,0.1,1.9,0.3,2.8c0.2,0.9,0.6,1.7,1,2.4s1.1,1.3,1.8,1.7C265.4,521.9,266.3,522.2,267.3,522.2z"/>
		<path class="st3" d="M282.8,522.8c0,0.3-0.1,0.5-0.2,0.7c-0.1,0.2-0.4,0.2-0.8,0.2c-0.4,0-0.7-0.1-0.8-0.3
			c-0.2-0.2-0.2-0.4-0.2-0.7v-16.4c0-0.3,0.1-0.6,0.2-0.7c0.2-0.2,0.4-0.3,0.8-0.3c0.4,0,0.6,0.1,0.8,0.3c0.2,0.2,0.2,0.4,0.2,0.8
			v6.4l6.9-6.3c0.2-0.2,0.4-0.3,0.6-0.5c0.2-0.2,0.4-0.3,0.6-0.4c0.2-0.1,0.4-0.2,0.6-0.1c0.2,0,0.4,0.1,0.6,0.3
			c0.4,0.4,0.3,0.9-0.3,1.5l-7.7,6.8l8.1,7.7c0.3,0.3,0.5,0.6,0.6,0.9c0,0.3,0,0.5-0.2,0.8c-0.4,0.5-0.9,0.5-1.6-0.1l-8.2-8.1V522.8
			z"/>
		<path class="st3" d="M300,521.7h6.7c0.3,0,0.5,0,0.8,0c0.3,0,0.5,0,0.7,0.1c0.2,0.1,0.3,0.1,0.5,0.3c0.1,0.1,0.2,0.3,0.2,0.5
			c0,0.4-0.1,0.6-0.3,0.7c-0.2,0.1-0.5,0.2-0.9,0.2h-8.4c-0.4,0-0.7-0.1-0.9-0.2c-0.2-0.1-0.3-0.4-0.3-0.9v-15.5
			c0-0.4,0.1-0.7,0.3-0.9c0.2-0.2,0.5-0.2,0.9-0.2h8.2c0.4,0,0.6,0.1,0.8,0.2c0.2,0.1,0.3,0.4,0.3,0.7c0,0.3-0.1,0.6-0.3,0.7
			c-0.2,0.1-0.5,0.2-0.8,0.2H300v5.9h7.1c0.4,0,0.7,0.1,0.9,0.2c0.2,0.1,0.3,0.4,0.3,0.7c0,0.3-0.1,0.6-0.3,0.7
			c-0.2,0.1-0.5,0.2-0.9,0.2H300V521.7z"/>
		<path class="st3" d="M316.7,522.7c0,0.3-0.1,0.5-0.3,0.7c-0.2,0.2-0.4,0.3-0.8,0.3s-0.6-0.1-0.8-0.3c-0.2-0.2-0.2-0.4-0.2-0.7
			v-16.3c0-0.3,0.1-0.5,0.2-0.7s0.4-0.3,0.7-0.3c0.3,0,0.5,0.1,0.7,0.2c0.2,0.2,0.3,0.3,0.5,0.5l9.3,13.7v-13.4
			c0-0.3,0.1-0.5,0.2-0.7c0.1-0.2,0.4-0.3,0.8-0.3c0.4,0,0.6,0.1,0.8,0.3c0.2,0.2,0.2,0.4,0.2,0.8v16.3c0,0.3-0.1,0.5-0.2,0.7
			s-0.4,0.3-0.7,0.3c-0.2,0-0.5-0.1-0.6-0.2c-0.2-0.1-0.4-0.3-0.5-0.6l-9.3-13.4V522.7z"/>
	</g>
	<g class="st2">
		<path class="st3" d="M85.2,550l-1.1,3c-0.1,0.2-0.2,0.5-0.3,0.7c-0.1,0.2-0.2,0.4-0.3,0.6c-0.1,0.2-0.2,0.3-0.4,0.5
			c-0.1,0.1-0.3,0.2-0.5,0.2c-0.3,0-0.6-0.1-0.8-0.3c-0.2-0.2-0.2-0.6,0-1.2l5.5-15.9c0.1-0.3,0.2-0.5,0.5-0.7
			c0.2-0.2,0.5-0.2,0.8-0.2c0.4,0,0.7,0.1,0.9,0.2c0.2,0.2,0.4,0.4,0.5,0.7l5.5,15.9c0.1,0.4,0.1,0.8,0,1.1
			c-0.1,0.3-0.4,0.4-0.9,0.4c-0.3,0-0.5-0.1-0.7-0.2c-0.2-0.2-0.3-0.4-0.4-0.7l-1.4-4H85.2z M91.7,548.2l-3-8.9l-3,8.9H91.7z"/>
		<path class="st3" d="M102.9,553.9c0,0.3-0.1,0.5-0.3,0.7c-0.2,0.2-0.4,0.3-0.8,0.3s-0.6-0.1-0.8-0.3c-0.2-0.2-0.2-0.4-0.2-0.7
			v-16.3c0-0.3,0.1-0.5,0.2-0.7s0.4-0.3,0.7-0.3c0.3,0,0.5,0.1,0.7,0.2c0.2,0.2,0.3,0.3,0.5,0.5l9.3,13.7v-13.4
			c0-0.3,0.1-0.5,0.2-0.7c0.1-0.2,0.4-0.3,0.8-0.3c0.4,0,0.6,0.1,0.8,0.3c0.2,0.2,0.2,0.4,0.2,0.8v16.3c0,0.3-0.1,0.5-0.2,0.7
			s-0.4,0.3-0.7,0.3c-0.2,0-0.5-0.1-0.6-0.2c-0.2-0.1-0.4-0.3-0.5-0.6l-9.3-13.4V553.9z"/>
		<path class="st3" d="M126.6,536.9c1.3,0,2.4,0.2,3.3,0.7c0.9,0.5,1.7,1.1,2.3,1.9c0.6,0.8,1.1,1.7,1.4,2.8
			c0.3,1.1,0.4,2.2,0.4,3.5c0,1.2-0.1,2.4-0.4,3.5c-0.3,1.1-0.7,2-1.3,2.8c-0.6,0.8-1.4,1.4-2.3,1.9s-2,0.7-3.2,0.7h-4.9
			c-0.5,0-0.8-0.1-0.9-0.2c-0.1-0.1-0.2-0.4-0.2-0.8v-15.8c0-0.4,0.1-0.6,0.2-0.8s0.4-0.2,0.9-0.2H126.6z M122.8,553h4
			c1.6,0,2.9-0.6,3.8-1.9s1.4-3,1.4-5.4c0-2.3-0.5-4-1.4-5.2c-0.9-1.2-2.4-1.8-4.5-1.8h-3.3V553z"/>
		<path class="st3" d="M155.4,538.8v15.1c0,0.3-0.1,0.6-0.2,0.8c-0.1,0.2-0.4,0.3-0.8,0.3c-0.4,0-0.7-0.1-0.8-0.3
			c-0.1-0.2-0.2-0.4-0.2-0.8v-15.1h-4.2c-0.3,0-0.6-0.1-0.7-0.2s-0.3-0.4-0.3-0.7c0-0.3,0.1-0.6,0.3-0.7s0.4-0.2,0.7-0.2h10.4
			c0.3,0,0.5,0.1,0.7,0.2s0.3,0.4,0.3,0.7c0,0.3-0.1,0.6-0.3,0.7c-0.2,0.1-0.4,0.2-0.7,0.2H155.4z"/>
		<path class="st3" d="M168.5,550l-1.1,3c-0.1,0.2-0.2,0.5-0.3,0.7c-0.1,0.2-0.2,0.4-0.3,0.6c-0.1,0.2-0.2,0.3-0.4,0.5
			c-0.1,0.1-0.3,0.2-0.5,0.2c-0.3,0-0.6-0.1-0.8-0.3c-0.2-0.2-0.2-0.6,0-1.2l5.5-15.9c0.1-0.3,0.2-0.5,0.5-0.7
			c0.2-0.2,0.5-0.2,0.8-0.2c0.4,0,0.7,0.1,0.9,0.2c0.2,0.2,0.4,0.4,0.5,0.7l5.5,15.9c0.1,0.4,0.1,0.8,0,1.1
			c-0.1,0.3-0.4,0.4-0.9,0.4c-0.3,0-0.5-0.1-0.7-0.2c-0.2-0.2-0.3-0.4-0.4-0.7l-1.4-4H168.5z M174.9,548.2l-3-8.9l-3,8.9H174.9z"/>
		<path class="st3" d="M186.2,554c0,0.3-0.1,0.5-0.2,0.7c-0.1,0.2-0.4,0.2-0.8,0.2c-0.4,0-0.7-0.1-0.8-0.3c-0.2-0.2-0.2-0.4-0.2-0.7
			v-16.4c0-0.3,0.1-0.6,0.2-0.7c0.2-0.2,0.4-0.3,0.8-0.3c0.4,0,0.6,0.1,0.8,0.3c0.2,0.2,0.2,0.4,0.2,0.8v6.4l6.9-6.3
			c0.2-0.2,0.4-0.3,0.6-0.5c0.2-0.2,0.4-0.3,0.6-0.4c0.2-0.1,0.4-0.2,0.6-0.1s0.4,0.1,0.6,0.3c0.4,0.4,0.3,0.9-0.3,1.5l-7.7,6.8
			l8.1,7.7c0.3,0.3,0.5,0.6,0.6,0.9s0,0.5-0.2,0.8c-0.4,0.5-0.9,0.5-1.6-0.1l-8.2-8.1V554z"/>
		<path class="st3" d="M203.4,552.9h6.7c0.3,0,0.5,0,0.8,0c0.3,0,0.5,0,0.7,0.1c0.2,0.1,0.3,0.1,0.5,0.3c0.1,0.1,0.2,0.3,0.2,0.5
			c0,0.4-0.1,0.6-0.3,0.7c-0.2,0.1-0.5,0.2-0.9,0.2h-8.4c-0.4,0-0.7-0.1-0.9-0.2c-0.2-0.1-0.3-0.4-0.3-0.9V538
			c0-0.4,0.1-0.7,0.3-0.9s0.5-0.2,0.9-0.2h8.2c0.4,0,0.6,0.1,0.8,0.2s0.3,0.4,0.3,0.7c0,0.3-0.1,0.6-0.3,0.7
			c-0.2,0.1-0.5,0.2-0.8,0.2h-7.4v5.9h7.1c0.4,0,0.7,0.1,0.9,0.2c0.2,0.1,0.3,0.4,0.3,0.7c0,0.3-0.1,0.6-0.3,0.7s-0.5,0.2-0.9,0.2
			h-7.1V552.9z"/>
		<path class="st3" d="M234.4,536.4c1.3,0,2.5,0.3,3.4,0.8c1,0.5,1.8,1.2,2.4,2c0.6,0.9,1.1,1.9,1.5,3c0.3,1.1,0.5,2.3,0.5,3.6
			c0,1.3-0.2,2.5-0.5,3.6c-0.3,1.1-0.8,2.1-1.5,3c-0.6,0.9-1.5,1.6-2.4,2.1c-1,0.5-2.1,0.8-3.5,0.8c-1.3,0-2.4-0.3-3.4-0.8
			c-1-0.5-1.8-1.2-2.5-2c-0.7-0.9-1.1-1.9-1.5-3c-0.3-1.1-0.5-2.4-0.5-3.6c0-1.3,0.2-2.5,0.5-3.6c0.3-1.1,0.8-2.1,1.4-3
			c0.6-0.9,1.5-1.5,2.5-2C231.9,536.6,233,536.4,234.4,536.4z M234.4,553.4c1,0,1.8-0.2,2.5-0.5c0.7-0.4,1.3-0.9,1.8-1.5
			c0.5-0.7,0.8-1.4,1.1-2.4c0.2-0.9,0.4-1.9,0.4-3c0-1-0.1-2-0.3-2.9c-0.2-0.9-0.6-1.7-1.1-2.4c-0.5-0.7-1.1-1.3-1.8-1.7
			c-0.7-0.4-1.6-0.6-2.6-0.6s-1.9,0.2-2.6,0.6c-0.7,0.4-1.3,1-1.8,1.7c-0.5,0.7-0.8,1.5-1.1,2.4c-0.2,0.9-0.3,1.9-0.3,2.8
			c0,1,0.1,1.9,0.3,2.8c0.2,0.9,0.6,1.7,1,2.4c0.5,0.7,1.1,1.3,1.8,1.7C232.5,553.1,233.4,553.4,234.4,553.4z"/>
		<path class="st3" d="M249.9,553.9c0,0.3-0.1,0.5-0.3,0.7c-0.2,0.2-0.4,0.3-0.8,0.3s-0.6-0.1-0.8-0.3c-0.2-0.2-0.2-0.4-0.2-0.7
			v-16.3c0-0.3,0.1-0.5,0.2-0.7s0.4-0.3,0.7-0.3c0.3,0,0.5,0.1,0.7,0.2c0.2,0.2,0.3,0.3,0.5,0.5l9.3,13.7v-13.4
			c0-0.3,0.1-0.5,0.2-0.7c0.1-0.2,0.4-0.3,0.8-0.3c0.4,0,0.6,0.1,0.8,0.3c0.2,0.2,0.2,0.4,0.2,0.8v16.3c0,0.3-0.1,0.5-0.2,0.7
			s-0.4,0.3-0.7,0.3c-0.2,0-0.5-0.1-0.6-0.2c-0.2-0.1-0.4-0.3-0.5-0.6l-9.3-13.4V553.9z"/>
		<path class="st3" d="M269.8,552.9h6.7c0.3,0,0.5,0,0.8,0c0.3,0,0.5,0,0.7,0.1c0.2,0.1,0.3,0.1,0.5,0.3c0.1,0.1,0.2,0.3,0.2,0.5
			c0,0.4-0.1,0.6-0.3,0.7c-0.2,0.1-0.5,0.2-0.9,0.2h-8.4c-0.4,0-0.7-0.1-0.9-0.2c-0.2-0.1-0.3-0.4-0.3-0.9V538
			c0-0.4,0.1-0.7,0.3-0.9c0.2-0.2,0.5-0.2,0.9-0.2h8.2c0.4,0,0.6,0.1,0.8,0.2c0.2,0.1,0.3,0.4,0.3,0.7c0,0.3-0.1,0.6-0.3,0.7
			c-0.2,0.1-0.5,0.2-0.8,0.2h-7.4v5.9h7.1c0.4,0,0.7,0.1,0.9,0.2c0.2,0.1,0.3,0.4,0.3,0.7c0,0.3-0.1,0.6-0.3,0.7
			c-0.2,0.1-0.5,0.2-0.9,0.2h-7.1V552.9z"/>
		<path class="st3" d="M300.2,538.8v15.1c0,0.3-0.1,0.6-0.2,0.8c-0.1,0.2-0.4,0.3-0.8,0.3c-0.4,0-0.7-0.1-0.8-0.3
			c-0.1-0.2-0.2-0.4-0.2-0.8v-15.1H294c-0.3,0-0.6-0.1-0.7-0.2c-0.2-0.1-0.3-0.4-0.3-0.7c0-0.3,0.1-0.6,0.3-0.7
			c0.2-0.1,0.4-0.2,0.7-0.2h10.4c0.3,0,0.5,0.1,0.7,0.2c0.2,0.2,0.3,0.4,0.3,0.7c0,0.3-0.1,0.6-0.3,0.7s-0.4,0.2-0.7,0.2H300.2z"/>
		<path class="st3" d="M317.7,536.4c1.3,0,2.5,0.3,3.4,0.8c1,0.5,1.8,1.2,2.4,2c0.6,0.9,1.1,1.9,1.5,3c0.3,1.1,0.5,2.3,0.5,3.6
			c0,1.3-0.2,2.5-0.5,3.6c-0.3,1.1-0.8,2.1-1.5,3c-0.6,0.9-1.5,1.6-2.4,2.1c-1,0.5-2.1,0.8-3.5,0.8c-1.3,0-2.4-0.3-3.4-0.8
			c-1-0.5-1.8-1.2-2.5-2c-0.7-0.9-1.1-1.9-1.5-3c-0.3-1.1-0.5-2.4-0.5-3.6c0-1.3,0.2-2.5,0.5-3.6c0.3-1.1,0.8-2.1,1.4-3
			c0.6-0.9,1.5-1.5,2.5-2C315.2,536.6,316.3,536.4,317.7,536.4z M317.7,553.4c1,0,1.8-0.2,2.5-0.5c0.7-0.4,1.3-0.9,1.8-1.5
			c0.5-0.7,0.8-1.4,1.1-2.4c0.2-0.9,0.4-1.9,0.4-3c0-1-0.1-2-0.3-2.9c-0.2-0.9-0.6-1.7-1.1-2.4c-0.5-0.7-1.1-1.3-1.8-1.7
			c-0.7-0.4-1.6-0.6-2.6-0.6s-1.9,0.2-2.6,0.6c-0.7,0.4-1.3,1-1.8,1.7c-0.5,0.7-0.8,1.5-1.1,2.4c-0.2,0.9-0.3,1.9-0.3,2.8
			c0,1,0.1,1.9,0.3,2.8c0.2,0.9,0.6,1.7,1,2.4c0.5,0.7,1.1,1.3,1.8,1.7C315.8,553.1,316.6,553.4,317.7,553.4z"/>
		<path class="st3" d="M333.2,554c0,0.3-0.1,0.5-0.2,0.7c-0.1,0.2-0.4,0.2-0.8,0.2c-0.4,0-0.7-0.1-0.8-0.3c-0.2-0.2-0.2-0.4-0.2-0.7
			v-16.4c0-0.3,0.1-0.6,0.2-0.7c0.2-0.2,0.4-0.3,0.8-0.3c0.4,0,0.6,0.1,0.8,0.3c0.2,0.2,0.2,0.4,0.2,0.8v6.4l6.9-6.3
			c0.2-0.2,0.4-0.3,0.6-0.5c0.2-0.2,0.4-0.3,0.6-0.4c0.2-0.1,0.4-0.2,0.6-0.1c0.2,0,0.4,0.1,0.6,0.3c0.4,0.4,0.3,0.9-0.3,1.5
			l-7.7,6.8l8.1,7.7c0.3,0.3,0.5,0.6,0.6,0.9c0,0.3,0,0.5-0.2,0.8c-0.4,0.5-0.9,0.5-1.6-0.1l-8.2-8.1V554z"/>
		<path class="st3" d="M350.4,552.9h6.7c0.3,0,0.5,0,0.8,0s0.5,0,0.7,0.1s0.3,0.1,0.5,0.3c0.1,0.1,0.2,0.3,0.2,0.5
			c0,0.4-0.1,0.6-0.3,0.7s-0.5,0.2-0.9,0.2h-8.4c-0.4,0-0.7-0.1-0.9-0.2c-0.2-0.1-0.3-0.4-0.3-0.9V538c0-0.4,0.1-0.7,0.3-0.9
			c0.2-0.2,0.5-0.2,0.9-0.2h8.2c0.4,0,0.6,0.1,0.8,0.2c0.2,0.1,0.3,0.4,0.3,0.7c0,0.3-0.1,0.6-0.3,0.7s-0.5,0.2-0.8,0.2h-7.4v5.9
			h7.1c0.4,0,0.7,0.1,0.9,0.2c0.2,0.1,0.3,0.4,0.3,0.7c0,0.3-0.1,0.6-0.3,0.7c-0.2,0.1-0.5,0.2-0.9,0.2h-7.1V552.9z"/>
		<path class="st3" d="M367.1,553.9c0,0.3-0.1,0.5-0.3,0.7c-0.2,0.2-0.4,0.3-0.8,0.3s-0.6-0.1-0.8-0.3c-0.2-0.2-0.2-0.4-0.2-0.7
			v-16.3c0-0.3,0.1-0.5,0.2-0.7s0.4-0.3,0.7-0.3c0.3,0,0.5,0.1,0.7,0.2c0.2,0.2,0.3,0.3,0.5,0.5l9.3,13.7v-13.4
			c0-0.3,0.1-0.5,0.2-0.7s0.4-0.3,0.8-0.3c0.4,0,0.7,0.1,0.8,0.3c0.2,0.2,0.2,0.4,0.2,0.8v16.3c0,0.3-0.1,0.5-0.2,0.7
			s-0.4,0.3-0.7,0.3c-0.2,0-0.5-0.1-0.6-0.2c-0.2-0.1-0.4-0.3-0.5-0.6l-9.3-13.4V553.9z"/>
	</g>
	
		<rect x="128.3" y="424.8" transform="matrix(9.999500e-03 -0.9999 0.9999 9.999500e-03 -269.4871 588.4301)" class="st1" width="68.3" height="10.9"/>
	
		<rect x="157.6" y="439" transform="matrix(9.250091e-03 -1 1 9.250091e-03 -298.8533 617.6559)" class="st1" width="9.4" height="41.4"/>
	<path class="st1" d="M168.6,396.1l-0.1,9l-22.1-0.2l0.1-9L168.6,396.1z"/>
	<polygon class="st4" points="168.5,405.1 168.4,419.6 157.5,405 	"/>
	<rect x="271.3" y="426.8" class="st1" width="49.8" height="8"/>
	<rect x="348.1" y="397.6" class="st1" width="10.9" height="68.3"/>
	<rect x="332.6" y="456.5" class="st1" width="41.4" height="9.4"/>
	<path class="st1" d="M359,397.6v9h-22.1v-9H359z"/>
	<polygon class="st4" points="359,406.6 359,421.1 348.1,406.6 	"/>
	
		<rect x="80.4" y="429.3" transform="matrix(9.250113e-03 -1 1 9.250113e-03 -328.9537 534.5807)" class="st1" width="49.8" height="8"/>
	
		<rect x="101.3" y="408.4" transform="matrix(9.250091e-03 -1 1 9.250091e-03 -328.9525 534.6553)" class="st1" width="8" height="49.8"/>
	<polygon class="st4" points="109.3,437.3 109.2,447.6 101.3,437.2 	"/>
	<polygon class="st5" points="332.6,465.9 374,465.9 374,475.6 	"/>
	<polygon class="st5" points="141.9,464 183.2,464 183.2,473.8 	"/>
	<polygon class="st5" points="271.7,435 321,435 321,444.8 	"/>
</g>
<rect x="41.5" y="118.9" class="st6" width="357" height="208"/>
<text id="Description" transform="matrix(1 0 0 1 41.5273 128.0701)" class="st7 st8">Card Description</text>
</svg>
