<?xml version="1.0" encoding="utf-8"?>
<svg version="1.1" id="Layer_1" xmlns="http://www.w3.org/2000/svg" xmlns:xlink="http://www.w3.org/1999/xlink" x="0px" y="0px"
	 viewBox="0 0 454.4 620.2" style="enable-background:new 0 0 454.4 620.2;" xml:space="preserve">
<style type="text/css">
	.st0{fill:#FFFFFF;stroke:#5DD1F9;stroke-width:15;stroke-miterlimit:10;}
	.st1{fill:#5DD1F9;}
	.st2{fill:#4FA6BA;}
	.st3{enable-background:new    ;}
	.st4{fill:#60C7E2;}
	.st5{fill:#E2E2E2;}
	.st6{fill:none;}
	.st7{font-family:'Verdana';}
	.st8{font-size:12px;}
</style>
<title>SUPER BUGS</title>
<g id="图层_3">
	<path class="st0" d="M104.9,7.7h244.6c53.3,0,96.6,43.2,96.6,96.6v411.8c0,53.3-43.2,96.6-96.6,96.6H104.9
		c-53.3,0-96.6-43.2-96.6-96.6V104.3C8.4,51,51.6,7.7,104.9,7.7z"/>
</g>
<g id="图层_7">
	<path class="st1" d="M57.8,78.6h338.8c27.3,0,49.5,22.1,49.5,49.5v189.7c0,27.3-22.1,49.5-49.5,49.5H57.8
		c-27.3,0-49.5-22.1-49.5-49.5V128.1C8.4,100.8,30.5,78.6,57.8,78.6z"/>
	<rect x="252.8" y="400.6" class="st1" width="13.5" height="84.3"/>
	<rect x="233.7" y="473.2" class="st1" width="51" height="11.6"/>
	<path class="st1" d="M266.3,400.6v11.1H239v-11.1H266.3z"/>
	<polygon class="st2" points="266.3,411.7 266.3,429.6 252.8,411.7 	"/>
	<g class="st3">
		<path class="st4" d="M97.4,529.8v18c0,0.4-0.1,0.7-0.2,0.9c-0.2,0.2-0.5,0.3-1,0.3c-0.5,0-0.8-0.1-1-0.3c-0.2-0.2-0.2-0.5-0.2-0.9
			v-18h-5c-0.4,0-0.7-0.1-0.9-0.2c-0.2-0.2-0.3-0.5-0.3-0.9c0-0.4,0.1-0.7,0.3-0.9s0.5-0.3,0.9-0.3h12.4c0.4,0,0.6,0.1,0.9,0.3
			c0.2,0.2,0.3,0.5,0.3,0.9c0,0.4-0.1,0.7-0.4,0.9c-0.3,0.2-0.5,0.2-0.8,0.2H97.4z"/>
		<path class="st4" d="M113,543.2l-1.3,3.6c-0.1,0.3-0.2,0.6-0.3,0.8c-0.1,0.3-0.2,0.5-0.4,0.7c-0.1,0.2-0.3,0.4-0.5,0.5
			c-0.2,0.1-0.4,0.2-0.6,0.2c-0.4,0-0.7-0.1-1-0.4c-0.2-0.3-0.2-0.7,0-1.4l6.5-18.9c0.1-0.3,0.3-0.6,0.5-0.8c0.3-0.2,0.6-0.3,1-0.3
			c0.4,0,0.8,0.1,1.1,0.3c0.3,0.2,0.5,0.5,0.6,0.8l6.5,19c0.2,0.5,0.2,0.9,0,1.3c-0.1,0.3-0.5,0.5-1,0.5c-0.4,0-0.6-0.1-0.9-0.3
			c-0.2-0.2-0.4-0.5-0.5-0.9l-1.7-4.7H113z M120.7,541.1l-3.5-10.6l-3.5,10.6H120.7z"/>
		<path class="st4" d="M134.1,548c0,0.4-0.1,0.6-0.2,0.8s-0.5,0.3-1,0.3c-0.5,0-0.8-0.1-1-0.3s-0.3-0.5-0.3-0.8v-19.5
			c0-0.4,0.1-0.7,0.3-0.9s0.5-0.3,1-0.3c0.4,0,0.7,0.1,0.9,0.3c0.2,0.2,0.3,0.5,0.3,0.9v7.6l8.3-7.5c0.2-0.2,0.5-0.4,0.7-0.6
			c0.2-0.2,0.5-0.4,0.7-0.5c0.2-0.1,0.5-0.2,0.7-0.2c0.2,0,0.4,0.1,0.7,0.3c0.5,0.5,0.4,1.1-0.3,1.8l-9.2,8.1l9.6,9.2
			c0.4,0.4,0.6,0.8,0.7,1.1c0.1,0.4,0,0.7-0.2,0.9c-0.5,0.6-1.1,0.5-1.9-0.1l-9.7-9.7V548z"/>
		<path class="st4" d="M154.6,546.7h8c0.3,0,0.6,0,0.9,0c0.3,0,0.6,0,0.8,0.1c0.2,0.1,0.4,0.2,0.5,0.3c0.1,0.1,0.2,0.4,0.2,0.6
			c0,0.4-0.1,0.7-0.3,0.9s-0.6,0.2-1.1,0.2h-10c-0.5,0-0.8-0.1-1.1-0.3c-0.2-0.2-0.4-0.5-0.4-1.1v-18.5c0-0.5,0.1-0.8,0.3-1
			c0.2-0.2,0.6-0.3,1.1-0.3h9.8c0.4,0,0.8,0.1,1,0.2c0.2,0.2,0.3,0.4,0.4,0.9c0,0.4-0.1,0.7-0.3,0.8c-0.2,0.2-0.6,0.2-1,0.2h-8.8v7
			h8.5c0.5,0,0.8,0.1,1,0.2c0.2,0.2,0.3,0.5,0.3,0.9c0,0.4-0.1,0.7-0.3,0.8c-0.2,0.1-0.5,0.2-1,0.2h-8.5V546.7z"/>
		<path class="st4" d="M191.5,526.9c1.6,0,2.9,0.3,4.1,0.9c1.2,0.6,2.1,1.4,2.9,2.4c0.8,1,1.4,2.2,1.8,3.6c0.4,1.4,0.6,2.8,0.6,4.3
			c0,1.5-0.2,3-0.6,4.3c-0.4,1.4-1,2.5-1.7,3.6c-0.8,1-1.7,1.8-2.9,2.4c-1.2,0.6-2.5,0.9-4.1,0.9c-1.5,0-2.9-0.3-4.1-0.9
			c-1.2-0.6-2.2-1.4-2.9-2.4c-0.8-1-1.4-2.2-1.8-3.6c-0.4-1.4-0.6-2.8-0.6-4.3c0-1.5,0.2-2.9,0.6-4.3c0.4-1.4,0.9-2.6,1.7-3.6
			c0.8-1,1.8-1.8,2.9-2.4C188.6,527.2,189.9,526.9,191.5,526.9z M191.5,547.2c1.2,0,2.2-0.2,3-0.7c0.9-0.4,1.6-1,2.2-1.8
			c0.6-0.8,1-1.7,1.3-2.8c0.3-1.1,0.4-2.3,0.4-3.6c0-1.2-0.1-2.3-0.4-3.4c-0.3-1.1-0.7-2.1-1.3-2.9c-0.6-0.8-1.3-1.5-2.2-2
			c-0.9-0.5-1.9-0.8-3.1-0.8c-1.2,0-2.2,0.3-3.1,0.8c-0.9,0.5-1.6,1.2-2.2,2s-1,1.8-1.3,2.9c-0.3,1.1-0.4,2.2-0.4,3.4
			c0,1.2,0.1,2.3,0.4,3.3c0.3,1.1,0.7,2,1.2,2.9c0.6,0.8,1.3,1.5,2.2,2C189.3,546.9,190.3,547.2,191.5,547.2z"/>
		<path class="st4" d="M210,547.9c0,0.4-0.1,0.6-0.3,0.9c-0.2,0.2-0.5,0.4-0.9,0.4c-0.4,0-0.7-0.1-0.9-0.4c-0.2-0.2-0.3-0.5-0.3-0.9
			v-19.4c0-0.4,0.1-0.6,0.2-0.9s0.4-0.3,0.9-0.3c0.3,0,0.6,0.1,0.8,0.3c0.2,0.2,0.4,0.4,0.6,0.6l11.1,16.3v-16
			c0-0.4,0.1-0.6,0.3-0.9c0.2-0.2,0.5-0.3,0.9-0.3s0.8,0.1,1,0.3c0.2,0.2,0.3,0.5,0.3,0.9v19.4c0,0.4-0.1,0.6-0.2,0.9
			c-0.2,0.2-0.4,0.3-0.9,0.3c-0.3,0-0.5-0.1-0.8-0.3c-0.2-0.2-0.4-0.4-0.6-0.7l-11.1-16V547.9z"/>
		<path class="st4" d="M233.8,546.7h8c0.3,0,0.6,0,0.9,0c0.3,0,0.6,0,0.8,0.1c0.2,0.1,0.4,0.2,0.5,0.3c0.1,0.1,0.2,0.4,0.2,0.6
			c0,0.4-0.1,0.7-0.3,0.9s-0.6,0.2-1.1,0.2h-10c-0.5,0-0.8-0.1-1.1-0.3c-0.2-0.2-0.4-0.5-0.4-1.1v-18.5c0-0.5,0.1-0.8,0.3-1
			c0.2-0.2,0.6-0.3,1.1-0.3h9.8c0.4,0,0.8,0.1,1,0.2c0.2,0.2,0.3,0.4,0.4,0.9c0,0.4-0.1,0.7-0.3,0.8c-0.2,0.2-0.6,0.2-1,0.2h-8.8v7
			h8.5c0.5,0,0.8,0.1,1,0.2c0.2,0.2,0.3,0.5,0.3,0.9c0,0.4-0.1,0.7-0.3,0.8c-0.2,0.1-0.5,0.2-1,0.2h-8.5V546.7z"/>
		<path class="st4" d="M270.1,529.8v18c0,0.4-0.1,0.7-0.2,0.9s-0.5,0.3-1,0.3s-0.8-0.1-1-0.3c-0.2-0.2-0.2-0.5-0.2-0.9v-18h-5
			c-0.4,0-0.7-0.1-0.9-0.2c-0.2-0.2-0.3-0.5-0.3-0.9c0-0.4,0.1-0.7,0.3-0.9s0.5-0.3,0.9-0.3h12.4c0.4,0,0.6,0.1,0.9,0.3
			c0.2,0.2,0.3,0.5,0.3,0.9c0,0.4-0.1,0.7-0.4,0.9c-0.3,0.2-0.5,0.2-0.8,0.2H270.1z"/>
		<path class="st4" d="M290.8,526.9c1.6,0,2.9,0.3,4.1,0.9c1.2,0.6,2.1,1.4,2.9,2.4c0.8,1,1.4,2.2,1.8,3.6c0.4,1.4,0.6,2.8,0.6,4.3
			c0,1.5-0.2,3-0.6,4.3s-1,2.5-1.7,3.6c-0.8,1-1.7,1.8-2.9,2.4c-1.2,0.6-2.5,0.9-4.1,0.9c-1.5,0-2.9-0.3-4.1-0.9
			c-1.2-0.6-2.2-1.4-2.9-2.4c-0.8-1-1.4-2.2-1.8-3.6s-0.6-2.8-0.6-4.3c0-1.5,0.2-2.9,0.6-4.3c0.4-1.4,0.9-2.6,1.7-3.6
			c0.8-1,1.8-1.8,2.9-2.4S289.2,526.9,290.8,526.9z M290.8,547.2c1.2,0,2.2-0.2,3-0.7c0.9-0.4,1.6-1,2.2-1.8c0.6-0.8,1-1.7,1.3-2.8
			c0.3-1.1,0.4-2.3,0.4-3.6c0-1.2-0.1-2.3-0.4-3.4c-0.3-1.1-0.7-2.1-1.3-2.9c-0.6-0.8-1.3-1.5-2.2-2c-0.9-0.5-1.9-0.8-3.1-0.8
			c-1.2,0-2.2,0.3-3.1,0.8c-0.9,0.5-1.6,1.2-2.2,2s-1,1.8-1.3,2.9c-0.3,1.1-0.4,2.2-0.4,3.4c0,1.2,0.1,2.3,0.4,3.3
			c0.3,1.1,0.7,2,1.2,2.9c0.6,0.8,1.3,1.5,2.2,2C288.6,546.9,289.6,547.2,290.8,547.2z"/>
		<path class="st4" d="M309.3,548c0,0.4-0.1,0.6-0.2,0.8c-0.2,0.2-0.5,0.3-1,0.3c-0.5,0-0.8-0.1-1-0.3c-0.2-0.2-0.3-0.5-0.3-0.8
			v-19.5c0-0.4,0.1-0.7,0.3-0.9c0.2-0.2,0.5-0.3,1-0.3c0.4,0,0.7,0.1,0.9,0.3c0.2,0.2,0.3,0.5,0.3,0.9v7.6l8.3-7.5
			c0.2-0.2,0.5-0.4,0.7-0.6c0.2-0.2,0.5-0.4,0.7-0.5c0.2-0.1,0.5-0.2,0.7-0.2c0.2,0,0.4,0.1,0.7,0.3c0.5,0.5,0.4,1.1-0.3,1.8
			l-9.2,8.1l9.6,9.2c0.4,0.4,0.6,0.8,0.7,1.1c0.1,0.4,0,0.7-0.2,0.9c-0.5,0.6-1.1,0.5-1.9-0.1l-9.7-9.7V548z"/>
		<path class="st4" d="M329.8,546.7h8c0.3,0,0.6,0,0.9,0c0.3,0,0.6,0,0.8,0.1c0.2,0.1,0.4,0.2,0.5,0.3c0.1,0.1,0.2,0.4,0.2,0.6
			c0,0.4-0.1,0.7-0.3,0.9s-0.6,0.2-1.1,0.2h-10c-0.5,0-0.8-0.1-1.1-0.3c-0.2-0.2-0.4-0.5-0.4-1.1v-18.5c0-0.5,0.1-0.8,0.3-1
			c0.2-0.2,0.6-0.3,1.1-0.3h9.8c0.4,0,0.8,0.1,1,0.2c0.2,0.2,0.3,0.4,0.4,0.9c0,0.4-0.1,0.7-0.3,0.8c-0.2,0.2-0.6,0.2-1,0.2h-8.8v7
			h8.5c0.5,0,0.8,0.1,1,0.2c0.2,0.2,0.3,0.5,0.3,0.9c0,0.4-0.1,0.7-0.3,0.8c-0.2,0.1-0.5,0.2-1,0.2h-8.5V546.7z"/>
		<path class="st4" d="M349.7,547.9c0,0.4-0.1,0.6-0.3,0.9c-0.2,0.2-0.5,0.4-0.9,0.4s-0.7-0.1-0.9-0.4c-0.2-0.2-0.3-0.5-0.3-0.9
			v-19.4c0-0.4,0.1-0.6,0.2-0.9c0.2-0.2,0.4-0.3,0.9-0.3c0.3,0,0.6,0.1,0.8,0.3c0.2,0.2,0.4,0.4,0.6,0.6l11.1,16.3v-16
			c0-0.4,0.1-0.6,0.3-0.9s0.5-0.3,0.9-0.3c0.5,0,0.8,0.1,1,0.3c0.2,0.2,0.3,0.5,0.3,0.9v19.4c0,0.4-0.1,0.6-0.2,0.9
			c-0.2,0.2-0.4,0.3-0.9,0.3c-0.3,0-0.5-0.1-0.8-0.3c-0.2-0.2-0.4-0.4-0.6-0.7l-11.1-16V547.9z"/>
	</g>
	<rect x="159.3" y="438.1" class="st1" width="52.9" height="8.5"/>
	<polygon class="st5" points="159.3,446.6 212.2,446.6 212.2,456.3 	"/>
</g>
<rect x="41.5" y="118.9" class="st6" width="357" height="208"/>
<text id="Description" transform="matrix(1 0 0 1 41.5273 128.0701)" class="st7 st8">Card Description</text>
</svg>
