<svg xmlns="http://www.w3.org/2000/svg" viewBox="0 0 228.87 328.37"><defs><style>.cls-1,.cls-2{fill:#fff;}.cls-2{stroke:#5dd1f9;stroke-miterlimit:10;stroke-width:13px;}.cls-3{fill:#5dd1f9;}.cls-4{fill:#4fa6ba;}.cls-5{fill:#e2e2e2;}</style></defs><title>SUPER BUGS</title><g id="图层_3" data-name="图层 3"><rect class="cls-1" x="6.78" y="6.63" width="215.48" height="314.99" rx="60.72" ry="60.72"/><rect class="cls-1" x="6.11" y="6.63" width="215.48" height="314.99" rx="60.72" ry="60.72"/></g><g id="图层_7" data-name="图层 7"><rect class="cls-2" x="7.11" y="6.63" width="215.48" height="314.99" rx="60.72" ry="60.72"/><rect class="cls-3" x="145.42" y="106.62" width="10.94" height="68.29"/><rect class="cls-3" x="145.95" y="149.53" width="9.39" height="41.36" transform="translate(-19.56 320.86) rotate(-90)"/><path class="cls-3" d="M156.36,106.62v9H134.28v-9Z"/><polygon class="cls-4" points="156.36 115.62 156.36 130.19 145.42 115.62 156.36 115.62"/><rect class="cls-3" x="89.55" y="212.71" width="7.98" height="49.82" transform="translate(-144.08 331.17) rotate(-90)"/><rect class="cls-3" x="145.42" y="204.39" width="10.94" height="68.29"/><rect class="cls-3" x="145.95" y="247.3" width="9.39" height="41.36" transform="translate(-117.33 418.63) rotate(-90)"/><path class="cls-3" d="M156.36,204.39v9H134.28v-9Z"/><polygon class="cls-4" points="156.36 213.39 156.36 227.96 145.42 213.39 156.36 213.39"/><rect class="cls-3" x="89.49" y="119.51" width="7.98" height="49.82"/><rect class="cls-3" x="89.49" y="119.51" width="7.98" height="49.82" transform="translate(-50.94 237.9) rotate(-90)"/><polygon class="cls-4" points="97.47 148.41 97.47 158.72 89.49 148.41 97.47 148.41"/><polygon class="cls-5" points="14.14 85.62 216.69 85.62 216.69 101.35 14.14 85.62"/><polygon class="cls-5" points="129.97 272.68 171.33 272.68 171.33 282.42 129.97 272.68"/><polygon class="cls-5" points="129.97 174.91 171.33 174.91 171.33 184.65 129.97 174.91"/><polygon class="cls-5" points="69.04 241.84 118.39 241.84 118.39 251.58 69.04 241.84"/><rect class="cls-3" x="7.37" y="67.35" width="215.48" height="18.27"/></g></svg>