<svg xmlns="http://www.w3.org/2000/svg" viewBox="0 0 228.87 328.37"><defs><style>.cls-1,.cls-2{fill:#fff;}.cls-2{stroke:#5dd1f9;stroke-miterlimit:10;stroke-width:13px;}.cls-3{fill:#e2e2e2;}.cls-4{fill:#5dd1f9;}.cls-5{fill:#4fa6ba;}</style></defs><title>SUPER BUGS</title><g id="图层_3" data-name="图层 3"><rect class="cls-1" x="6.78" y="6.63" width="215.48" height="314.99" rx="60.72" ry="60.72"/></g><g id="图层_7" data-name="图层 7"><rect class="cls-2" x="6.78" y="6.61" width="215.48" height="314.99" rx="60.72" ry="60.72"/><polygon class="cls-3" points="13.46 132.54 216 132.54 216 148.27 13.46 132.54"/><rect class="cls-4" x="6.78" y="67.33" width="215.48" height="65.76"/><rect class="cls-4" x="142.13" y="178.52" width="11.62" height="72.55"/><rect class="cls-4" x="142.7" y="224.11" width="9.98" height="43.94" transform="translate(-98.39 393.77) rotate(-90)"/><path class="cls-4" d="M153.75,178.52v9.56H130.29v-9.56Z"/><polygon class="cls-5" points="153.75 188.09 153.75 197.56 142.13 188.09 153.75 188.09"/><polygon class="cls-3" points="125.72 251.08 169.66 251.08 169.66 260.82 125.72 251.08"/><rect class="cls-4" x="80.72" y="188.95" width="7.98" height="49.82"/><rect class="cls-4" x="80.72" y="188.95" width="7.98" height="49.82" transform="translate(-129.15 298.57) rotate(-90)"/><polygon class="cls-5" points="88.7 217.85 88.7 228.16 80.72 217.85 88.7 217.85"/></g></svg>