<svg xmlns="http://www.w3.org/2000/svg" viewBox="0 0 228.87 328.37"><defs><style>.cls-1,.cls-2{fill:#fff;}.cls-2{stroke:#5dd1f9;stroke-miterlimit:10;stroke-width:13px;}.cls-3{fill:#5dd1f9;}.cls-4{fill:#4fa6ba;}.cls-5{fill:#e2e2e2;}</style></defs><title>SUPER BUGS</title><g id="图层_7" data-name="图层 7"><rect class="cls-1" x="3.54" y="7.41" width="215.48" height="314.99" rx="60.72" ry="60.72"/><rect class="cls-2" x="6.72" y="7.03" width="215.48" height="314.99" rx="60.72" ry="60.72"/><rect class="cls-3" x="81.91" y="173.34" width="8.48" height="52.92" transform="translate(-113.65 285.96) rotate(-90)"/><rect class="cls-3" x="136.82" y="164.5" width="11.62" height="72.55"/><rect class="cls-3" x="137.38" y="210.09" width="9.98" height="43.94" transform="translate(-89.69 374.43) rotate(-90)"/><path class="cls-3" d="M148.44,164.5v9.56H125V164.5Z"/><polygon class="cls-4" points="148.44 174.07 148.44 183.54 136.82 174.07 148.44 174.07"/><polygon class="cls-5" points="59.69 204.04 112.61 204.04 112.61 213.78 59.69 204.04"/><polygon class="cls-5" points="13.4 132.96 215.94 132.96 215.94 148.7 13.4 132.96"/><polygon class="cls-5" points="120.4 237.06 164.34 237.06 164.34 246.8 120.4 237.06"/><rect class="cls-3" x="6.72" y="67.75" width="215.48" height="65.76"/></g></svg>