<svg xmlns="http://www.w3.org/2000/svg" viewBox="0 0 228.87 328.37"><defs><style>.cls-1,.cls-2{fill:#fff;}.cls-2{stroke:#5dd1f9;stroke-miterlimit:10;stroke-width:13px;}.cls-3{fill:#5dd1f9;}.cls-4{fill:#4fa6ba;}.cls-5{fill:#e2e2e2;}</style></defs><title>SUPER BUGS</title><g id="图层_7" data-name="图层 7"><rect class="cls-1" x="1.89" y="7.22" width="215.48" height="314.99" rx="60.72" ry="60.72"/><rect class="cls-2" x="6.59" y="6.81" width="215.48" height="314.99" rx="60.72" ry="60.72"/><rect class="cls-3" x="158.08" y="165.59" width="11.62" height="41.26"/><rect class="cls-3" x="134.98" y="197.08" width="11.62" height="41.26"/><rect class="cls-3" x="149.22" y="215.1" width="9.98" height="38.56" transform="translate(-80.17 388.59) rotate(-90)"/><rect class="cls-3" x="147.32" y="184.47" width="9.98" height="34.77" transform="translate(-49.55 354.18) rotate(-90)"/><rect class="cls-3" x="147.32" y="153.19" width="9.98" height="34.77" transform="translate(-18.26 322.89) rotate(-90)"/><polygon class="cls-4" points="169.7 175.57 169.7 191.04 158.08 175.57 169.7 175.57"/><polygon class="cls-4" points="146.6 206.1 146.6 221.58 134.98 206.1 146.6 206.1"/><polygon class="cls-5" points="134.93 239.37 173.49 239.37 173.49 249.11 134.93 239.37"/><polygon class="cls-5" points="13.27 132.74 215.81 132.74 215.81 148.48 13.27 132.74"/><rect class="cls-3" x="6.59" y="67.53" width="215.48" height="65.76"/><rect class="cls-3" x="78.92" y="173.16" width="8.48" height="52.92" transform="translate(-116.46 282.79) rotate(-90)"/><polygon class="cls-5" points="56.7 203.86 109.63 203.86 109.63 213.6 56.7 203.86"/></g></svg>