<svg xmlns="http://www.w3.org/2000/svg" viewBox="0 0 228.87 328.37"><defs><style>.cls-1{fill:#fff;stroke:#5dd1f9;stroke-miterlimit:10;stroke-width:13px;}.cls-2{fill:#5dd1f9;}.cls-3{fill:#4fa6ba;}.cls-4{fill:#e2e2e2;}</style></defs><title>SUPER BUGS</title><g id="图层_7" data-name="图层 7"><rect class="cls-1" x="6.8" y="6.63" width="215.48" height="314.99" rx="60.72" ry="60.72"/><rect class="cls-2" x="158.29" y="165.41" width="11.62" height="41.26"/><rect class="cls-2" x="135.19" y="196.9" width="11.62" height="41.26"/><rect class="cls-2" x="149.43" y="214.92" width="9.98" height="38.56" transform="translate(-79.78 388.62) rotate(-90)"/><rect class="cls-2" x="147.54" y="184.3" width="9.98" height="34.77" transform="translate(-49.16 354.21) rotate(-90)"/><rect class="cls-2" x="147.54" y="153.01" width="9.98" height="34.77" transform="translate(-17.87 322.93) rotate(-90)"/><polygon class="cls-3" points="169.91 175.39 169.91 190.87 158.29 175.39 169.91 175.39"/><polygon class="cls-3" points="146.82 205.92 146.82 221.4 135.19 205.92 146.82 205.92"/><rect class="cls-2" x="85.56" y="174.87" width="8.48" height="52.92"/><rect class="cls-2" x="85.56" y="174.87" width="8.48" height="52.92" transform="translate(-111.53 291.12) rotate(-90)"/><polygon class="cls-3" points="94.04 205.57 94.04 216.52 85.56 205.57 94.04 205.57"/><polygon class="cls-4" points="135.14 239.19 173.7 239.19 173.7 248.93 135.14 239.19"/><polygon class="cls-4" points="13.48 132.56 216.02 132.56 216.02 148.3 13.48 132.56"/><rect class="cls-2" x="6.8" y="67.35" width="215.48" height="65.76"/></g></svg>